<svg width="100" height="100" viewBox="0 0 100 100" fill="none" xmlns="http://www.w3.org/2000/svg">
	<rect width="100" height="100" fill="#E5E5E5" />
	<rect width="100" height="100" fill="white" />
	<path d="M55 90H86C88.2091 90 90 88.2091 90 86V48H55V90Z" fill="#D93731" stroke="black" stroke-width="2" />
	<path d="M10 86C10 88.2091 11.7909 90 14 90H46V64H10V86Z" fill="#D93731" stroke="black" stroke-width="2" />
	<path d="M54 37H90V15C90 12.7909 88.2091 11 86 11H54V37Z" fill="#D93731" stroke="black" stroke-width="2" />
	<path d="M10 53H45V11H14C11.7909 11 10 12.7909 10 15V53Z" fill="#D93731" stroke="black" stroke-width="2" />
	<path d="M21.7344 24V41.0625H26.7734C28.2812 41.0625 29.6172 40.7266 30.7812 40.0547C31.9531 39.3828 32.8594 38.4297 33.5 37.1953C34.1406 35.9609 34.4609 34.5469 34.4609 32.9531V32.0977C34.4609 30.4805 34.1367 29.0586 33.4883 27.832C32.8477 26.6055 31.9297 25.6602 30.7344 24.9961C29.5469 24.332 28.1836 24 26.6445 24H21.7344ZM24.6992 38.6719V26.3672H26.6328C28.1875 26.3672 29.3789 26.8516 30.207 27.8203C31.043 28.7969 31.4688 30.1953 31.4844 32.0156V32.9648C31.4844 34.8164 31.082 36.2305 30.2773 37.207C29.4727 38.1836 28.3047 38.6719 26.7734 38.6719H24.6992Z" fill="white" />
	<path d="M65.7344 61V78.0625H71.582C73.5117 78.0625 74.9805 77.6758 75.9883 76.9023C76.9961 76.1289 77.5 74.9766 77.5 73.4453C77.5 72.6641 77.2891 71.9609 76.8672 71.3359C76.4453 70.7109 75.8281 70.2266 75.0156 69.8828C75.9375 69.6328 76.6484 69.1602 77.1484 68.4648C77.6562 67.7773 77.9102 66.9492 77.9102 65.9805C77.9102 64.3789 77.3945 63.1484 76.3633 62.2891C75.3398 61.4297 73.8711 61 71.957 61H65.7344ZM68.6992 68.6992V63.3672H71.9922C72.9219 63.3672 73.6484 63.5977 74.1719 64.0586C74.6953 64.5195 74.957 65.1602 74.957 65.9805C74.957 67.7539 74.0508 68.6602 72.2383 68.6992H68.6992ZM68.6992 70.8789H71.6055C72.5273 70.8789 73.2461 71.0859 73.7617 71.5C74.2852 71.9219 74.5469 72.5156 74.5469 73.2812C74.5469 74.125 74.3047 74.7344 73.8203 75.1094C73.3438 75.4844 72.5977 75.6719 71.582 75.6719H68.6992V70.8789Z" fill="white" />
</svg>
